<svg aria-hidden="true" style="position:absolute;width:0;height:0;overflow:hidden" xmlns="http://www.w3.org/2000/svg">
    <defs>
      <symbol id="icon-company-tagline" viewBox="0 0 32 32">
        <path d="M16.128 15.218c-.134-.178-.198-.389-.183-.6v-.87c0-.267.061-.47.182-.608s.329-.208.624-.207c.277 0 .473.059.59.177.127.151.188.335.174.521v.205h-.495v-.207a1.061 1.061 0 0 0-.014-.203c-.007-.046-.032-.088-.071-.12-.051-.035-.115-.051-.179-.047a.3029.3029 0 0 0-.189.05c-.043.036-.072.082-.082.133a.972.972 0 0 0-.019.215v1.056a.536.536 0 0 0 .064.297c.025.031.059.056.099.072s.084.021.128.017c.063.005.126-.013.175-.048.04-.035.066-.08.074-.128.012-.07.017-.141.015-.212v-.214h.495v.196c.014.194-.046.386-.171.547-.114.129-.308.194-.593.194s-.5-.069-.623-.213zM18.191 15.226c-.125-.136-.188-.333-.188-.594v-.916c0-.259.063-.454.188-.587s.334-.199.628-.198c.291 0 .499.066.625.198s.189.329.189.587v.916c0 .259-.064.457-.191.593s-.334.205-.623.205c-.288 0-.502-.069-.628-.204zm.858-.219a.5072.5072 0 0 0 .059-.271v-1.121a.5001.5001 0 0 0-.058-.266c-.025-.032-.06-.057-.101-.073s-.086-.021-.131-.016c-.044-.005-.09 0-.131.016s-.076.041-.102.073a.4793.4793 0 0 0-.059.266v1.126c-.006.093.014.186.059.271.029.029.064.051.104.067s.083.024.127.024.087-.008.127-.024.076-.039.104-.067v-.005zM20.227 12.958h.533l.401 1.689.41-1.689h.519l.052 2.438h-.384l-.041-1.695-.396 1.695h-.308l-.41-1.701-.038 1.701h-.388l.048-2.438zM22.741 12.958h.831c.479 0 .718.231.718.692 0 .442-.252.663-.756.662h-.283v1.084h-.513l.003-2.438zm.71 1.042a.3923.3923 0 0 0 .282-.077c.059-.082.085-.179.074-.275a.7507.7507 0 0 0-.025-.221c-.007-.024-.02-.047-.038-.067s-.04-.037-.065-.049a.5373.5373 0 0 0-.229-.039h-.199v.729h.199zM25.029 12.958h.551l.565 2.438h-.478l-.112-.562h-.491l-.115.562h-.485l.565-2.438zm.471 1.594-.192-1.023-.192 1.023h.384zM26.601 12.958h.359l.687 1.391v-1.391h.426v2.438h-.342l-.691-1.452v1.452h-.44l.001-2.438zM29.07 14.467l-.571-1.505h.481l.349.967.327-.967h.471l-.564 1.505v.93h-.492v-.93zM16.92 16.462v.128h-.418v.991h-.175v-.991h-.42v-.128h1.014zM18.232 17.581h-.135a.0568.0568 0 0 1-.038-.011.0582.0582 0 0 1-.023-.026l-.121-.266h-.58l-.121.266a.0777.0777 0 0 1-.018.03.0704.0704 0 0 1-.038.011h-.135l.513-1.118h.178l.519 1.114zm-.849-.415h.484l-.205-.455a.8253.8253 0 0 1-.038-.105c-.007.021-.013.042-.019.059l-.018.047-.203.454zM19.116 17.471c.032.001.064.001.096 0a.5602.5602 0 0 0 .082-.013.621.621 0 0 0 .074-.02c.023-.008.045-.018.069-.027v-.252h-.205c-.005 0-.01 0-.015-.002s-.009-.004-.013-.007c-.003-.003-.006-.006-.008-.009s-.003-.007-.002-.011v-.086h.398v.429c-.032.02-.067.038-.103.053s-.075.028-.114.038a.928.928 0 0 1-.128.023c-.05.005-.1.007-.15.007a.7507.7507 0 0 1-.258-.042.6192.6192 0 0 1-.205-.117.5365.5365 0 0 1-.132-.177.5665.5665 0 0 1-.047-.232.5918.5918 0 0 1 .046-.234c.029-.066.075-.127.132-.177s.128-.09.205-.116a.8498.8498 0 0 1 .275-.042c.048 0 .095.003.143.01.042.006.083.015.122.028.036.012.07.026.103.044s.061.037.089.058l-.049.069c-.004.006-.01.012-.017.015s-.015.006-.023.006a.062.062 0 0 1-.032-.009.5125.5125 0 0 1-.05-.027.4234.4234 0 0 0-.069-.03.6206.6206 0 0 0-.094-.025.8132.8132 0 0 0-.13-.01.599.599 0 0 0-.198.031c-.057.02-.109.05-.151.089a.3796.3796 0 0 0-.095.139.5213.5213 0 0 0 0 .373c.022.053.057.101.103.141.042.038.093.069.15.089.065.019.134.027.203.022zM20.751 17.453h.56v.128h-.731v-1.118h.175l-.004.991zM21.893 17.581h-.175v-1.118h.175v1.118zM22.545 16.468c.01.005.02.012.027.02l.75.843a.267.267 0 0 1 0-.04V16.458h.153v1.123h-.088a.0822.0822 0 0 1-.038-.006.1207.1207 0 0 1-.028-.021l-.749-.842V17.582h-.147v-1.118h.091c.01 0 .02.002.029.005zM24.766 16.462v.123h-.622v.369h.504v.119h-.504v.382h.622v.123h-.802v-1.116h.802zM6.388 9.556l7.787 1.909v6.689l-7.787-1.908v-6.69zm-.499-.57v7.585l8.785 2.154v-7.584L5.889 8.986z" />
        <path d="m10.597 22.247-8.786-2.156v-7.584l8.786 2.155v7.585zM6.035 9.47l7.686 1.885-3.268 2.823-7.687-1.886 3.27-2.822zm-.146-.484-4.078 3.52 8.786 2.155 4.077-3.52-8.785-2.155zM11.092 21.82l3.582-3.094-3.582-.879v3.973z" />
      </symbol>
      <symbol id="icon-brand" viewBox="0 0 32 32">
        <path d="M8.078 20.448a.431.431 0 0 1 .111.295c.004.07-.01.14-.039.204s-.075.122-.132.168c-.143.099-.32.147-.499.136h-.877v-1.869h.859c.17-.01.338.034.476.124.055.043.099.096.128.157s.042.127.038.193c.005.103-.03.204-.1.286a.4763.4763 0 0 1-.261.146c.116.019.221.076.296.16zm-1.029-.282h.367c.083.006.166-.016.233-.062.028-.023.049-.051.063-.083s.019-.066.016-.1c.003-.034-.003-.068-.016-.099s-.034-.06-.061-.083a.3796.3796 0 0 0-.24-.063H7.05v.49zm.637.717c.029-.023.053-.053.068-.086s.022-.069.019-.104a.2239.2239 0 0 0-.089-.191.4032.4032 0 0 0-.249-.068H7.05v.514h.39c.088.005.175-.018.246-.065zM9.833 21.252l-.478-.73h-.18v.73h-.411v-1.869h.778c.196-.013.39.044.542.159.109.101.174.235.185.377s-.034.282-.127.396c-.096.101-.227.168-.371.19l.509.747h-.447zm-.657-.985h.336c.233 0 .35-.094.35-.283.002-.039-.004-.077-.019-.113s-.038-.069-.067-.097a.3916.3916 0 0 0-.264-.076h-.34l.004.569zM12.079 20.876h-.819l-.145.376h-.431l.752-1.848h.466l.749 1.848h-.431l-.142-.376zm-.11-.283-.299-.789-.299.789h.598zM14.89 21.252h-.408l-.914-1.271v1.271h-.407v-1.869h.407l.914 1.278v-1.278h.408v1.869zM17.217 20.805c-.084.141-.213.256-.369.33a1.295 1.295 0 0 1-.573.118h-.726v-1.869h.726c.198-.005.395.035.573.115.156.072.285.186.369.326.084.152.128.32.128.49s-.044.338-.128.49zm-.466-.045c.116-.124.18-.282.18-.446s-.064-.322-.18-.446c-.141-.112-.324-.17-.511-.159h-.283v1.21h.283c.186.011.37-.046.511-.159zM12.334 8.986s5.264 1.82 5.153 4.453v4.454s-5.261-1.821-5.151-4.454l-.002-4.453zM22.177 16.851c.994-.627 2.144-1.015 3.345-1.129v-1.394c-1.383.488-2.557 1.373-3.345 2.523z" />
        <path d="M21.579 17.271c.814-1.5 2.225-2.658 3.942-3.235v-4.018s-7.497 2.592-7.339 6.342v6.341s.334-.116.86-.333c0-.203 0-.407.024-.613.155-1.741 1.059-3.354 2.513-4.485z" />
        <path d="M20.866 19.627c.039-.44.127-.875.262-1.298-.905.977-1.454 2.189-1.568 3.465-.011.121-.017.241-.02.365.426-.187.921-.421 1.442-.696a6.0282 6.0282 0 0 1-.117-1.836zM21.165 19.649c-.05.556-.019 1.115.093 1.663 2.048-1.122 4.35-2.856 4.261-4.952v-.183c-1.463.15-2.833.736-3.897 1.667a5.8285 5.8285 0 0 0-.457 1.804z" />
      </symbol>
      <symbol id="icon-foster-peters" viewBox="0 0 32 32">
        <path d="M7.289 13.314h-.001c-.724 0-1.311.522-1.311 1.165v.001c0 .643.587 1.165 1.311 1.165h.001c.724 0 1.311-.522 1.311-1.165v-.001c0-.643-.587-1.165-1.311-1.165zM16.965 12.942c-.002-.894-.402-1.75-1.113-2.382s-1.675-.988-2.68-.99c-1.006.002-1.97.357-2.681.989s-1.112 1.489-1.114 2.383v4.928s7.587-.751 7.588-4.927v-.001zM3.321 19.487c.002.622.28 1.218.775 1.657s1.165.688 1.865.689c.699-.002 1.37-.25 1.864-.689s.773-1.035.775-1.657v-3.429s-5.28.523-5.28 3.428zm2.639.614c-.137 0-.27-.036-.384-.104s-.202-.163-.255-.276c-.052-.112-.066-.236-.039-.355s.093-.229.189-.315c.097-.086.22-.144.354-.168s.273-.012.399.035.234.125.31.226.117.22.117.341c0 .081-.017.161-.052.236s-.085.143-.15.2c-.064.057-.141.103-.225.134s-.174.047-.265.047V20.1zM11.296 19.763h-.509v.526h-.265v-1.288h.838v.215h-.573v.333h.509v.214zm1.275-.089c0 .127-.022.238-.067.333s-.109.169-.193.221c-.083.052-.179.078-.287.078-.107 0-.202-.026-.286-.077s-.149-.124-.195-.219c-.046-.096-.069-.205-.07-.329v-.064c0-.127.023-.238.068-.334s.111-.171.194-.222c.084-.052.179-.078.287-.078s.203.026.286.078c.084.051.148.125.194.222s.069.207.069.333v.058zm-.269-.058c0-.135-.024-.238-.072-.308s-.117-.105-.207-.105c-.089 0-.158.035-.206.104s-.073.17-.073.304v.063c0 .131.024.233.072.306s.118.109.209.109c.089 0 .157-.035.205-.104s.072-.172.072-.306v-.063zm1.13.335c0-.05-.018-.088-.053-.115s-.099-.055-.191-.085c-.092-.03-.165-.06-.218-.088-.146-.079-.219-.185-.219-.319 0-.07.019-.131.058-.186s.096-.098.169-.128c.074-.031.156-.046.248-.046s.174.017.246.05c.072.033.128.08.167.141s.06.13.06.207h-.265c0-.059-.019-.105-.056-.137s-.089-.049-.157-.049c-.065 0-.115.014-.151.042s-.054.063-.054.108c0 .042.021.077.063.105s.105.055.187.08c.151.045.261.102.33.169s.104.151.104.251c0 .111-.042.199-.127.263s-.198.095-.341.095c-.099 0-.189-.018-.271-.054s-.144-.086-.187-.149c-.042-.063-.064-.136-.064-.219h.266c0 .142.085.213.255.213.063 0 .112-.013.148-.038s.053-.062.053-.108zm1.416-.735h-.394v1.073h-.265v-1.073H13.8v-.215h1.049v.215zm.927.515h-.509v.345h.598v.213h-.863v-1.288h.861v.215h-.596v.307h.509v.208zm.72.086h-.211v.471h-.265V19h.479c.152 0 .269.034.352.102s.124.164.124.287c0 .088-.019.161-.057.22s-.095.105-.172.14l.279.526v.012h-.285l-.241-.471zm-.211-.214h.214c.067 0 .118-.017.155-.05s.055-.081.055-.141c0-.061-.017-.108-.052-.143s-.087-.052-.158-.052h-.213v.387zm1.608.232v.454h-.265v-1.288h.502c.097 0 .182.018.255.053s.13.086.17.151c.04.065.059.139.059.222 0 .126-.043.226-.13.299s-.206.109-.358.109h-.233zm0-.215h.237c.07 0 .124-.017.16-.05s.056-.08.056-.142c0-.063-.019-.114-.056-.153s-.088-.059-.154-.06h-.243v.404zm1.679.111h-.509v.345h.598v.213h-.863v-1.288h.861v.215h-.596v.307h.509v.208zm1.231-.515h-.394v1.073h-.265v-1.073h-.389v-.215h1.049v.215zm.927.515h-.509v.345h.598v.213h-.863v-1.288h.861v.215h-.596v.307h.509v.208zm.721.086h-.211v.471h-.265V19h.478c.152 0 .269.034.352.102s.124.164.124.287c0 .088-.019.161-.057.22s-.095.105-.172.14l.279.526v.012h-.285l-.241-.471zm-.212-.214h.214c.067 0 .118-.017.155-.05s.055-.081.055-.141c0-.061-.017-.108-.052-.143s-.087-.052-.158-.052h-.213v.387zm1.559.348c0-.05-.018-.088-.053-.115s-.099-.055-.191-.085c-.092-.03-.165-.06-.218-.088-.146-.079-.219-.185-.219-.319 0-.07.019-.131.058-.186s.096-.098.169-.128c.074-.031.156-.046.248-.046s.174.017.246.05c.072.033.128.08.167.141s.06.13.06.207h-.265c0-.059-.019-.105-.056-.137s-.089-.049-.157-.049c-.065 0-.115.014-.151.042s-.054.063-.054.108c0 .042.021.077.063.105s.105.055.187.08c.151.045.261.102.33.169s.103.151.103.251c0 .111-.042.199-.126.263s-.198.095-.34.095c-.099 0-.189-.018-.271-.054s-.144-.086-.187-.149c-.042-.063-.064-.136-.064-.219h.266c0 .142.085.213.255.213.063 0 .112-.013.148-.038s.053-.062.053-.108z" />
      </symbol>
      <symbol id="icon-company" viewBox="0 0 32 32">
        <path d="M10.991 21.766c.005 0 .01.001.014.003s.008.004.012.007l.066.063a.526.526 0 0 1-.185.119.7298.7298 0 0 1-.263.043.6848.6848 0 0 1-.247-.04.5402.5402 0 0 1-.186-.113.5028.5028 0 0 1-.12-.175.5785.5785 0 0 1-.042-.224.5484.5484 0 0 1 .045-.225.5268.5268 0 0 1 .128-.175.597.597 0 0 1 .198-.114.7761.7761 0 0 1 .254-.04c.081-.002.161.011.236.036.065.025.125.059.177.101l-.055.067a.0526.0526 0 0 1-.014.012c-.007.004-.014.006-.022.005s-.017-.003-.024-.007l-.03-.018-.041-.023c-.018-.008-.036-.016-.055-.022a.456.456 0 0 0-.075-.018.5324.5324 0 0 0-.098-.007.5132.5132 0 0 0-.183.03.4255.4255 0 0 0-.143.084.3905.3905 0 0 0-.093.134.4532.4532 0 0 0-.034.177.45.45 0 0 0 .034.18c.02.049.051.095.091.134.038.036.084.065.137.083.054.019.111.029.17.029.034 0 .067-.001.1-.006a.3983.3983 0 0 0 .152-.048.4937.4937 0 0 0 .065-.044c.008-.007.02-.011.031-.011zM12.892 21.45a.55.55 0 0 1-.044.222c-.027.064-.069.123-.124.173s-.121.088-.195.113a.806.806 0 0 1-.5 0 .5738.5738 0 0 1-.193-.114.5139.5139 0 0 1-.125-.174.584.584 0 0 1 0-.446.5216.5216 0 0 1 .125-.175.5652.5652 0 0 1 .193-.109.7919.7919 0 0 1 .5 0c.073.026.139.064.194.114s.096.108.124.172c.031.072.046.148.044.224zm-.173 0a.479.479 0 0 0-.031-.179.3631.3631 0 0 0-.088-.134.3785.3785 0 0 0-.139-.084.5808.5808 0 0 0-.364 0 .3982.3982 0 0 0-.139.084c-.04.039-.07.084-.089.134a.5243.5243 0 0 0 0 .358c.019.049.049.095.089.134.039.037.086.065.139.084.117.038.247.038.364 0 .053-.019.1-.047.139-.084a.3807.3807 0 0 0 .088-.134.4598.4598 0 0 0 .031-.179zM14.189 21.638l.017.04c.007-.014.012-.027.019-.04s.013-.027.021-.039l.421-.664c.008-.011.016-.019.024-.021a.1342.1342 0 0 1 .035-.004h.124v1.081h-.147V21.163c0-.013-.001-.025 0-.037l-.423.674c-.005.01-.014.019-.025.025s-.023.009-.036.009h-.024c-.013 0-.025-.003-.036-.009s-.019-.015-.025-.025l-.435-.678v.867h-.142v-1.078h.124c.012-.001.023.001.035.004.01.004.018.012.023.021l.43.665c.008.012.016.025.021.039zM15.772 21.584v.405h-.165V20.91h.367c.069-.001.138.007.205.024.053.013.103.036.145.067.037.029.065.065.082.106a.331.331 0 0 1 .028.138c.001.047-.01.094-.03.138-.02.041-.05.078-.089.108a.4335.4335 0 0 1-.146.072.6941.6941 0 0 1-.198.025l-.199-.003zm0-.116h.199c.043 0 .086-.005.128-.016.034-.01.065-.026.092-.047.025-.02.044-.044.056-.072.013-.029.02-.06.02-.091.002-.03-.004-.06-.017-.088s-.032-.053-.058-.074c-.063-.043-.142-.063-.221-.058h-.199v.445zM17.984 21.99h-.13a.063.063 0 0 1-.036-.01.0628.0628 0 0 1-.021-.025l-.112-.261h-.562l-.116.261a.0487.0487 0 0 1-.021.024.067.067 0 0 1-.037.011h-.13l.494-1.081h.171l.5 1.081zm-.815-.401h.464l-.196-.44a.7301.7301 0 0 1-.037-.102l-.019.056a.5565.5565 0 0 1-.018.046l-.194.439zM18.695 20.915c.01.005.018.011.025.019l.72.815v-.839h.147v1.081h-.082c-.012 0-.023-.002-.034-.006s-.019-.012-.026-.02l-.719-.814c.001.012.001.025 0 .037s0 .023 0 .033v.77h-.147V20.91h.087c.01 0 .02.001.03.005zM20.801 21.56v.429h-.165v-.429l-.455-.651h.147c.013-.001.025.003.035.009.009.007.016.015.022.024l.285.42c.012.018.021.034.03.05s.015.031.021.046l.021-.047a.343.343 0 0 1 .028-.049l.281-.423a.1507.1507 0 0 1 .021-.023c.01-.007.022-.011.035-.011h.149l-.456.654zM14.108 19.096c.072.008.144.014.217.02 1.111-.432 2.05-1.138 2.701-2.031s.985-1.933.959-2.99l-1.224-1.063c.249 1.125.132 2.288-.336 3.359s-1.271 2.008-2.317 2.705z" />
        <path d="m13.671 19.047.033.006c1.118-.695 1.971-1.665 2.447-2.786s.555-2.339.226-3.499l-1.743-1.515c.705 1.245.989 2.638.818 4.018s-.788 2.689-1.781 3.775zM19.583 15.344c-.296 1.161-1.015 2.209-2.051 2.986-.302.228-.629.432-.975.608.843-.215 1.618-.596 2.266-1.113s1.149-1.156 1.467-1.868l-.707-.614z" />
        <path d="m19.305 15.173-1.007-.875c-.019.997-.346 1.972-.945 2.822s-1.45 1.546-2.463 2.014h.005c.226 0 .451-.012.676-.035.947-.336 1.784-.87 2.435-1.555s1.098-1.5 1.299-2.371zM13.816 10.615 12.615 9.57c-1.074.36-1.997.994-2.649 1.818s-1.003 1.8-1.006 2.8c.004 1.105.432 2.177 1.216 3.047s1.88 1.487 3.114 1.755c1.101-1.166 1.746-2.607 1.841-4.113s-.366-2.999-1.315-4.262zM22.08 15.012c-.004-1.311-.606-2.567-1.673-3.494s-2.513-1.449-4.022-1.453c-.697-.001-1.389.111-2.039.33l7.353 6.388c.252-.565.381-1.165.38-1.771z" />
      </symbol>
      <symbol id="icon-company-here" viewBox="0 0 32 32">
        <path d="M15.129 8.799h-.041c-.063-.004-.127-.005-.19-.007h-.137c-.12 0-.242.003-.364.009a.1219.1219 0 0 0-.027 0c-1.1.062-2.178.337-3.175.81l-.131.063v6.684l.305-.104c.268-.092.554-.175.849-.252.799-.205 1.619-.314 2.444-.325v.878c-.109.001-.215.004-.322.009h-.025a9.713 9.713 0 0 0-1.88.289 9.547 9.547 0 0 0-2.24.873V9.153c.735-.428 1.526-.75 2.35-.956a9.0013 9.0013 0 0 1 2.215-.286h.129c.154.004.305.011.446.021.372.026.741.085 1.104.176v.864a6.7792 6.7792 0 0 0-1.069-.161c-.007-.001-.015-.001-.022-.002-.075-.006-.149-.013-.219-.013zm1.521.884c.192.015.39.021.591.021a9.4785 9.4785 0 0 0 2.328-.299c.78-.196 1.532-.49 2.239-.874v8.42c-.735.428-1.526.75-2.351.956-.724.186-1.468.282-2.215.285-.566.005-1.13-.062-1.68-.198V9.52c.13.03.263.058.399.081.223.038.458.065.687.082zm4.285.065-.305.103c-.281.094-.564.179-.849.254-.829.213-1.682.322-2.538.325-.199 0-.383-.005-.56-.017l-.244-.016v6.876l.209.018c.194.017.394.025.596.025.674-.003 1.346-.09 1.999-.259a8.41 8.41 0 0 0 1.562-.561l.131-.063V9.747zM10.789 20.657c-.044-.046-.097-.081-.155-.105s-.121-.035-.184-.032a.5059.5059 0 0 0-.196.037c-.057.023-.109.057-.153.101s-.077.096-.098.154a.4928.4928 0 0 0-.035.19v1.145c-.003.081.013.161.045.235.027.059.066.111.115.154.046.039.1.066.157.081.056.016.113.024.171.024.064.001.127-.013.185-.04a.4888.4888 0 0 0 .153-.106c.043-.044.076-.097.1-.154s.037-.12.037-.183v-.128h-.299v.102c.001.035-.005.07-.018.102a.188.188 0 0 1-.044.064.1902.1902 0 0 1-.063.033c-.02.007-.041.01-.063.011a.1532.1532 0 0 1-.141-.062.2755.2755 0 0 1-.04-.154v-1.068a.3617.3617 0 0 1 .037-.171c.016-.024.038-.043.063-.056s.055-.017.083-.013c.026-.001.051.004.075.016s.043.028.059.049c.034.044.051.098.05.154v.099h.296v-.117a.5223.5223 0 0 0-.037-.2.464.464 0 0 0-.1-.161zM12.567 20.644a.5316.5316 0 0 0-.341-.126c-.061 0-.121.011-.179.032s-.112.053-.158.094a.47.47 0 0 0-.116.16c-.03.07-.045.146-.044.222v1.099c-.002.077.013.154.044.225.027.059.067.111.116.154.046.042.1.075.158.097.057.021.118.032.179.032s.121-.011.179-.032c.06-.022.114-.054.162-.097s.086-.095.113-.154a.5287.5287 0 0 0 .044-.225v-1.099a.5305.5305 0 0 0-.044-.222.4897.4897 0 0 0-.113-.16zm-.14 1.481c.002.029-.002.059-.012.086s-.027.052-.048.073a.22.22 0 0 1-.282 0c-.021-.02-.037-.045-.048-.073s-.014-.057-.012-.086v-1.099c-.003-.029.002-.059.012-.086s.027-.052.048-.073a.22.22 0 0 1 .282 0c.021.02.037.045.048.073s.014.057.012.086v1.099zM14.903 22.615v-2.08h-.288l-.378 1.101h-.005l-.381-1.101h-.285v2.08h.297V21.35h.005l.291.894h.148l.293-.894h.005v1.265h.297zM16.591 20.681a.4295.4295 0 0 0-.168-.114.6305.6305 0 0 0-.215-.032h-.441v2.08h.296v-.812h.153a.539.539 0 0 0 .267-.057.429.429 0 0 0 .163-.159.5092.5092 0 0 0 .068-.181c.012-.078.017-.157.016-.236.003-.1-.007-.2-.029-.297a.4402.4402 0 0 0-.109-.191zm-.153.634a.265.265 0 0 1-.027.108.1677.1677 0 0 1-.076.073.2939.2939 0 0 1-.14.026h-.135v-.707h.153c.046-.002.092.007.134.026.031.018.055.044.07.077.016.037.025.076.026.116v.138c0 .048.003.098 0 .143h-.003zM17.995 20.535h-.243l-.458 2.08h.296l.087-.447h.404l.087.447h.296l-.47-2.08zm-.274 1.35.146-.754h.005l.145.754h-.296zM19.909 21.788h-.005l-.448-1.253h-.285v2.08h.296v-1.251h.006l.453 1.251h.279v-2.08h-.296v1.253zM21.72 20.535l-.238.827h-.006l-.238-.827h-.314l.407 1.201v.879h.296v-.879l.407-1.201h-.314zM9.962 23.202h.143v.401h.097v-.401h.142v-.082h-.382v.082zM11.163 23.12l-.187.483h.103l.04-.11h.192l.041.11h.105l-.192-.483h-.103zm-.015.292.066-.179.066.179h-.131zM12.35 23.425h.112v.062a.192.192 0 0 1-.115.041c-.019.001-.039-.003-.057-.011s-.033-.02-.046-.036a.202.202 0 0 1-.036-.126c0-.107.047-.161.139-.161.024-.002.049.004.069.018s.034.035.04.059l.095-.018c-.021-.094-.089-.142-.205-.142a.2458.2458 0 0 0-.169.062c-.024.024-.043.053-.055.085s-.017.066-.014.101c-.003.066.019.131.062.181.024.024.052.043.084.056s.066.017.099.015c.076.002.149-.025.205-.077v-.19h-.209v.081zM13.562 23.12h-.098v.483h.338v-.082h-.241v-.401zM14.586 23.12h-.098v.483h.098v-.483zM15.588 23.443l-.198-.322h-.095v.483h.091v-.316l.194.316h.097v-.483h-.089v.322zM16.494 23.39h.241v-.082h-.241v-.106h.259v-.082h-.357v.483h.367v-.082h-.269v-.131zM18.69 23.311h-.19v-.19h-.097v.483h.097v-.211h.19v.211h.097v-.483h-.097v.19zM19.602 23.39h.241v-.082h-.241v-.106h.26v-.082h-.357v.483h.366v-.082h-.269v-.131zM20.837 23.39c.084-.013.127-.058.127-.134.002-.021-.001-.041-.009-.06s-.022-.035-.038-.047a.267.267 0 0 0-.141-.028h-.205v.483h.097v-.202h.019c.021-.001.041.002.06.011.014.009.026.021.034.035l.105.154h.116l-.059-.094a.34.34 0 0 0-.107-.116zm-.098-.066h-.072v-.121h.076a.239.239 0 0 1 .099.012c.007.006.013.014.016.023s.005.018.005.028a.061.061 0 0 1-.025.048.275.275 0 0 1-.099.012zM21.769 23.39h.241v-.082h-.241v-.106h.26v-.082h-.357v.483h.367v-.082h-.269v-.131z" />
      </symbol>
      <symbol id="icon-yaco" viewBox="0 0 32 32">
        <path d="m11.472 9.121 2.116 2.003-3.927-.002v9.717h10.264v-3.715l2.113 2V9.121H11.472zm8.36 7.767-5.998-5.679h5.998v5.679zm-1.863 2.529h-6.685v-6.535h.473v6.093h6.212v.443zm-5.106 2.715-.247.509-.247-.509h-.207l.36.678v.395h.187v-.395l.36-.678h-.206zm.31 1.073.087-.25h.416l.088.25h.195l-.406-1.073h-.167l-.405 1.073h.194zm.295-.845.155.445h-.311l.156-.445zm.983.419a.2441.2441 0 0 0-.041.136c0 .09.032.164.095.22s.149.084.255.084.198-.029.274-.086l.06.072h.208l-.158-.186c.062-.085.093-.193.093-.325h-.155c0 .072-.015.138-.045.197l-.207-.245.073-.053c.052-.037.089-.075.111-.112s.034-.079.034-.124c0-.068-.025-.125-.075-.17s-.114-.069-.192-.069c-.086 0-.155.025-.206.074s-.077.115-.077.199c0 .034.008.07.024.107s.046.082.088.134c-.08.057-.133.106-.16.148zm.485.237c-.053.04-.109.06-.169.06-.054 0-.096-.015-.128-.046s-.048-.071-.048-.121c0-.057.03-.109.088-.153l.023-.016.234.276zm-.193-.475c-.051-.062-.076-.114-.076-.155 0-.036.01-.066.031-.089s.048-.035.083-.035c.032 0 .059.01.08.03s.032.043.032.072c0 .042-.015.077-.046.104l-.023.018-.082.056zm1.747.583c.074-.064.116-.154.127-.268h-.186c-.01.077-.033.131-.07.164s-.092.049-.165.049c-.08 0-.141-.03-.183-.091s-.062-.149-.062-.265v-.095c.001-.114.023-.201.066-.26s.106-.089.187-.089c.07 0 .123.017.158.052s.059.089.068.167h.186c-.012-.117-.054-.208-.126-.273s-.168-.097-.286-.097c-.088 0-.166.021-.233.063s-.118.101-.154.178-.054.166-.054.268v.1c.001.099.02.186.055.26s.085.132.15.173c.065.04.141.06.226.06.122 0 .22-.032.294-.096zm1.096-.15c.036-.08.055-.172.055-.277v-.06c0-.105-.019-.196-.056-.275s-.089-.14-.157-.181c-.067-.042-.145-.063-.232-.063s-.165.021-.233.064c-.067.042-.12.103-.157.184s-.055.172-.055.277v.06c0 .103.019.193.056.272s.09.139.158.182c.068.042.146.063.233.063s.166-.021.233-.063c.068-.043.12-.104.156-.183zm-.2-.607c.045.063.068.154.068.273v.056c0 .121-.022.213-.067.276s-.108.094-.19.094-.145-.032-.192-.097-.069-.155-.069-.273v-.062c.001-.115.024-.205.069-.268s.109-.095.189-.095c.083 0 .146.032.191.095z" />
      </symbol>
      <symbol id="icon-envelope" viewBox="0 0 32 32">
        <path d="M29 4H3C1.346 4 0 5.346 0 7v18c0 1.654 1.346 3 3 3h26c1.654 0 3-1.346 3-3V7c0-1.654-1.346-3-3-3zm0 2c.136 0 .265.028.383.077L16 17.676 2.617 6.077A.9956.9956 0 0 1 3 6h26zm0 20H3c-.552 0-1-.448-1-1V8.19l13.345 11.565c.188.163.422.244.655.244s.467-.081.655-.244L30 8.19V25c0 .552-.448 1-1 1z" />
      </symbol>
      <symbol id="icon-smartphone" viewBox="0 0 32 32">
        <path d="M23 0H9C7.346 0 6 1.346 6 3v26c0 1.654 1.346 3 3 3h14c1.654 0 3-1.346 3-3V3c0-1.654-1.346-3-3-3zM9 2h14c.552 0 1 .448 1 1v21H8V3c0-.552.448-1 1-1zm14 28H9c-.552 0-1-.448-1-1v-3h16v3c0 .552-.448 1-1 1z" />
        <path d="M10.707 27.478c.391.365.391.956 0 1.321s-1.024.365-1.414 0c-.391-.365-.391-.956 0-1.321s1.024-.365 1.414 0z" />
      </symbol>
      <symbol id="icon-linkedin-1" viewBox="0 0 32 32">
        <path d="M31.992 32v-.001H32V20.263c0-5.741-1.236-10.164-7.948-10.164-3.227 0-5.392 1.771-6.276 3.449h-.093v-2.913h-6.364v21.364h6.627V21.42c0-2.785.528-5.479 3.977-5.479 3.399 0 3.449 3.179 3.449 5.657v10.401h6.62zM.528 10.636h6.635V32H.528V10.636zM3.843 0C1.722 0 0 1.721 0 3.843s1.721 3.879 3.843 3.879c2.121 0 3.843-1.757 3.843-3.879C7.685 1.722 5.963 0 3.843 0z" />
      </symbol>
      <symbol id="icon-facebook-1" viewBox="0 0 32 32">
        <path d="M21.329 5.313h2.921V.225C23.746.156 22.013 0 19.994 0c-4.212 0-7.097 2.649-7.097 7.519V12H8.249v5.688h4.648V32h5.699V17.689h4.46l.708-5.688h-5.169V8.082c.001-1.644.444-2.769 2.735-2.769z" />
      </symbol>
      <symbol id="icon-twitter-1" viewBox="0 0 32 32">
        <path d="M32 6.078c-1.19.522-2.458.868-3.78 1.036 1.36-.812 2.398-2.088 2.886-3.626-1.268.756-2.668 1.29-4.16 1.588C25.742 3.794 24.026 3 22.154 3c-3.632 0-6.556 2.948-6.556 6.562 0 .52.044 1.02.152 1.496-5.454-.266-10.28-2.88-13.522-6.862-.566.982-.898 2.106-.898 3.316 0 2.272 1.17 4.286 2.914 5.452-1.054-.02-2.088-.326-2.964-.808v.072c0 3.188 2.274 5.836 5.256 6.446-.534.146-1.116.216-1.72.216-.42 0-.844-.024-1.242-.112.85 2.598 3.262 4.508 6.13 4.57-2.232 1.746-5.066 2.798-8.134 2.798-.538 0-1.054-.024-1.57-.09C2.906 27.93 6.35 29 10.064 29c12.072 0 18.672-10 18.672-18.668 0-.29-.01-.57-.024-.848C30.014 8.56 31.108 7.406 32 6.078z" />
      </symbol>
      <symbol id="icon-instagram-2" viewBox="0 0 32 32">
        <path d="M31.969 9.408c-.075-1.7-.35-2.869-.744-3.882-.406-1.075-1.032-2.038-1.851-2.838A7.8671 7.8671 0 0 0 26.542.844C25.523.45 24.36.175 22.66.1 20.947.019 20.403 0 16.059 0s-4.888.019-6.595.094c-1.7.075-2.869.35-3.882.744-1.075.406-2.038 1.031-2.838 1.85C1.931 3.488 1.3 4.457.9 5.52.506 6.539.231 7.702.156 9.402c-.081 1.713-.1 2.257-.1 6.601s.019 4.888.094 6.595c.075 1.7.35 2.869.744 3.882.406 1.075 1.038 2.038 1.85 2.838.8.813 1.769 1.444 2.832 1.844 1.019.394 2.182.669 3.882.744 1.706.075 2.25.094 6.595.094s4.888-.019 6.595-.094c1.7-.075 2.869-.35 3.882-.744a8.1843 8.1843 0 0 0 4.682-4.682c.394-1.019.669-2.182.744-3.882.075-1.707.094-2.251.094-6.595s-.006-4.888-.081-6.595zm-2.882 13.065c-.069 1.563-.331 2.407-.55 2.969a5.3097 5.3097 0 0 1-3.038 3.038c-.563.219-1.413.481-2.969.55-1.688.075-2.194.094-6.464.094s-4.782-.019-6.464-.094c-1.563-.069-2.407-.331-2.969-.55-.694-.256-1.325-.663-1.838-1.194-.531-.519-.938-1.144-1.194-1.838-.219-.563-.481-1.413-.55-2.969-.075-1.688-.094-2.194-.094-6.464s.019-4.782.094-6.464c.069-1.563.331-2.407.55-2.969.256-.694.663-1.325 1.2-1.838.519-.531 1.144-.938 1.838-1.194.563-.219 1.413-.481 2.969-.55 1.688-.075 2.194-.094 6.464-.094 4.276 0 4.782.019 6.464.094 1.563.069 2.407.331 2.969.55.694.256 1.325.662 1.838 1.194.531.519.938 1.144 1.194 1.838.219.563.481 1.413.55 2.969.075 1.688.094 2.194.094 6.464s-.019 4.77-.094 6.458z" />
        <path d="M16.059 7.783c-4.538 0-8.22 3.682-8.22 8.22s3.682 8.22 8.22 8.22c4.539 0 8.22-3.682 8.22-8.22s-3.682-8.22-8.22-8.22zm0 13.552c-2.944 0-5.332-2.388-5.332-5.332s2.388-5.332 5.332-5.332 5.332 2.388 5.332 5.332-2.388 5.332-5.332 5.332zM26.524 7.458c0 1.06-.859 1.919-1.919 1.919s-1.919-.859-1.919-1.919.859-1.919 1.919-1.919 1.919.859 1.919 1.919z" />
      </symbol>
      <symbol id="icon-antenna-1" viewBox="0 0 32 32">
        <path fill="#212121" style="fill:var(--color5, #212121)" d="m30.773 22.098-8.443-8.505.937-4.615c.242.094.499.144.758.146h.006c1.192.014 2.17-.941 2.184-2.133s-.941-2.17-2.133-2.184c-1.192-.014-2.17.941-2.184 2.133-.003.255.039.509.125.749l-4.96.605L8.972.161a.534.534 0 0 0-.377-.16.5319.5319 0 0 0-.373.155L6.709 1.66a.5335.5335 0 0 0 0 .754l.814.826C4.37 9.038 5.394 16.218 10.042 20.903c.043.041.092.074.146.098-.034.18-.051.364-.052.547v6.187h-6.4c-1.472.002-2.665 1.195-2.667 2.667v1.067c0 .295.239.533.533.533h24.533c.295 0 .533-.239.533-.533v-1.067c-.002-1.472-1.195-2.665-2.667-2.667h-6.4v-2.742c1.003.21 2.024.317 3.049.32a14.854 14.854 0 0 0 7.04-1.783l.818.823a.534.534 0 0 0 .377.16c.14-.001.274-.056.373-.155l1.513-1.504a.5335.5335 0 0 0 0-.754zM23.28 6.233c.418-.415 1.093-.414 1.508.004s.414 1.093-.004 1.508c-.2.199-.47.31-.752.31h-.003c-.589-.003-1.064-.483-1.061-1.072.002-.282.115-.552.314-.751h-.002zm-1.256 3.505-.598 2.946-1.175-1.182 1.774-1.763zm-.605-.902-1.92 1.909-1.485-1.493 3.405-.415zM24.004 28.8c.884 0 1.6.716 1.6 1.6v.533H2.137V30.4c0-.884.716-1.6 1.6-1.6h20.267zm-7.467-2.133v1.067h-5.333v-1.067h5.333zM11.204 25.6v-4.053c0-1.294 1.196-2.347 2.667-2.347s2.667 1.053 2.667 2.347V25.6h-5.333zm6.4-1.696v-2.357c0-1.882-1.675-3.413-3.733-3.413a3.8003 3.8003 0 0 0-3.281 1.786C6.532 15.646 5.619 9.275 8.311 4.033l18.602 18.708a13.8184 13.8184 0 0 1-9.309 1.163zm11.289-.684L7.836 2.039l.755-.752 7.935 7.98c.004 0 .006.007.01.01l13.115 13.191-.757.752z" />
        <path fill="#2196f3" style="fill:var(--color2, #2196f3)" d="M13.876 20.267h-.005c-.884-.001-1.601.714-1.602 1.598s.714 1.601 1.598 1.602h.005c.884.001 1.601-.714 1.602-1.598s-.714-1.601-1.598-1.602zm.373 1.978c-.1.1-.236.156-.378.155a.5343.5343 0 0 1-.531-.536.5325.5325 0 0 1 .53-.53c.295.002.532.241.53.536a.5325.5325 0 0 1-.157.375h.005z" />
      </symbol>
      <symbol id="icon-clock-1" viewBox="0 0 32 32">
        <path fill="#212121" style="fill:var(--color5, #212121)" d="M31.297 15.301C31.295 6.849 24.442-.002 15.989 0S.686 6.855.688 15.308c.001 6.658 4.307 12.551 10.649 14.576.061.019.124.029.187.029.121 0 .239-.032.342-.094.135-.08.236-.207.283-.356l3.865-12.25c1.057-.005 1.909-.866 1.903-1.923s-.866-1.909-1.923-1.903c-.284.001-.565.067-.82.191l-5.106-5.107a.6372.6372 0 0 0-.902.016.637.637 0 0 0 0 .886l5.103 5.109c-.392.799-.168 1.764.536 2.309l-3.683 11.673C3.844 25.783.118 17.71 2.799 10.432S13.553-.572 20.831 2.109s11.004 10.754 8.323 18.032a14.0422 14.0422 0 0 1-7.462 7.973l-.398-1.874a.638.638 0 0 0-.756-.492.6348.6348 0 0 0-.292.148l-3.837 3.426a.6366.6366 0 0 0-.052.9c.076.085.174.149.283.184l4.899 1.563c.335.108.694-.077.802-.412.034-.106.04-.219.017-.328l-.391-1.839c5.664-2.388 9.342-7.942 9.329-14.089zm-15.305-.637c.352 0 .638.286.638.638s-.286.638-.638.638c-.352 0-.638-.285-.638-.638s.285-.638.638-.638zm2.101 14.864 2.184-1.948.603 2.84-2.787-.892z" />
        <path fill="#2196f3" style="fill:var(--color2, #2196f3)" d="M15.354 3.185V4.46c0 .352.285.638.638.638s.638-.285.638-.638V3.185c0-.352-.286-.638-.638-.638s-.638.286-.638.638zM3.876 14.664c-.352 0-.638.286-.638.638s.285.638.638.638h1.275c.352 0 .638-.285.638-.638s-.285-.638-.638-.638H3.876zM28.108 15.939c.352 0 .638-.285.638-.638s-.285-.638-.638-.638h-1.275c-.352 0-.638.286-.638.638s.286.638.638.638h1.275z" />
      </symbol>
      <symbol id="icon-diagram-1" viewBox="0 0 32 32">
        <path fill="#2196f3" style="fill:var(--color2, #2196f3)" d="M14.926 14.965h1.066v4.798h-1.066v-4.797zM19.19 17.097h1.066v2.665H19.19v-2.665zM10.661 18.696h1.066v1.066h-1.066v-1.066zM7.463 18.163h1.066v1.599H7.463v-1.599z" />
        <path fill="#212121" style="fill:var(--color5, #212121)" d="M1.599 28.291h25.587c.883 0 1.599-.716 1.599-1.599V24.56c0-.883-.716-1.599-1.599-1.599h-.533V9.668L29.681 6.8c.703.346 1.553.136 2.013-.499s.396-1.508-.152-2.068-1.42-.644-2.065-.198a1.609 1.609 0 0 0-.542 2.002L26.654 8.2V6.97c0-.883-.716-1.599-1.599-1.599H3.733c-.883 0-1.599.716-1.599 1.599v15.992h-.533c-.883 0-1.599.716-1.599 1.599v2.132c0 .883.716 1.599 1.599 1.599zM30.384 4.837c.294 0 .533.239.533.533s-.239.533-.533.533c-.294 0-.533-.239-.533-.533s.239-.533.533-.533zM3.198 6.969c0-.294.239-.533.533-.533h21.322c.294 0 .533.239.533.533v2.239l-1.066 1.013V8.035c0-.294-.239-.533-.533-.533H4.797c-.294 0-.533.239-.533.533v13.326c0 .294.239.533.533.533h19.19c.294 0 .533-.239.533-.533v-9.674l1.066-1.01v12.284H3.198V6.969zm4.798 6.93c-.721-.002-1.354.478-1.546 1.174s.105 1.433.725 1.801c.62.368 1.41.276 1.928-.226l1.853.93a.532.532 0 0 0 .636-.123l3.939-4.431 3.872 2.901a.533.533 0 0 0 .686-.039l3.365-3.188v8.131H5.33V8.569h18.124v2.66l-3.771 3.572-3.904-2.927a.5332.5332 0 0 0-.718.072l-3.993 4.493-1.493-.746c.011-.064.018-.129.02-.193 0-.883-.716-1.599-1.599-1.599zm.533 1.599c0 .294-.239.533-.533.533s-.533-.239-.533-.533c0-.294.239-.533.533-.533s.533.239.533.533zm3.198 8.528h5.331v.533c0 .294-.239.533-.533.533h-4.264a.5335.5335 0 0 1-.533-.533v-.533zm-10.661.534c0-.294.239-.533.533-.533h9.062v.533c0 .883.716 1.599 1.599 1.599h4.264c.883 0 1.599-.716 1.599-1.599v-.533h9.062c.294 0 .533.239.533.533v2.132c0 .294-.239.533-.533.533H1.598a.5335.5335 0 0 1-.533-.533V24.56z" />
      </symbol>
      <symbol id="icon-astronaut-1" viewBox="0 0 32 32">
        <path fill="#2196f3" style="fill:var(--color2, #2196f3)" d="M31.974 4.524a.5343.5343 0 0 0-.43-.363l-1.91-.278-.855-1.731c-.179-.365-.777-.365-.956 0l-.855 1.731-1.91.278a.5354.5354 0 0 0-.431.363.5342.5342 0 0 0 .135.547l1.383 1.348-.326 1.903c-.034.2.048.402.212.522.166.121.382.135.562.04l1.709-.899 1.709.899c.078.041.164.061.249.061.11 0 .221-.034.314-.102a.5347.5347 0 0 0 .212-.522l-.326-1.903 1.383-1.348a.5363.5363 0 0 0 .135-.547zm-2.463 1.327a.5335.5335 0 0 0-.153.472l.191 1.114-1-.526c-.078-.041-.163-.061-.249-.061s-.17.02-.249.061l-1.001.526.191-1.114a.5344.5344 0 0 0-.153-.472l-.81-.789 1.119-.163a.5324.5324 0 0 0 .402-.292l.5-1.013.5 1.013c.078.157.228.267.402.292l1.119.163-.809.789zM26.134 20.522h-1.067v1.067h1.067v-1.067zM26.134 22.656h-1.067v1.067h1.067v-1.067zM27.2 21.589h-1.067v1.067H27.2v-1.067zM25.067 21.589H24v1.067h1.067v-1.067zM22.4 26.389h-1.067v1.067H22.4v-1.067zM22.4 28.522h-1.067v1.067H22.4v-1.067zM23.467 27.456H22.4v1.067h1.067v-1.067zM21.333 27.456h-1.067v1.067h1.067v-1.067zM16 24.256h-1.067v1.067H16v-1.067zM16 26.389h-1.067v1.067H16v-1.067zM17.067 25.322H16v1.067h1.067v-1.067zM14.933 25.322h-1.067v1.067h1.067v-1.067zM5.867 6.122H4.8v1.067h1.067V6.122zM5.867 8.255H4.8v1.067h1.067V8.255z" />
        <path fill="#2196f3" style="fill:var(--color2, #2196f3)" d="M6.933 7.189H5.866v1.067h1.067V7.189zM4.8 7.189H3.733v1.067H4.8V7.189z" />
        <path fill="#212121" style="fill:var(--color5, #212121)" d="M24.715 14.159c-.287-.388-.709-.637-1.188-.705-.481-.068-.956.058-1.34.352l-1.252.96-1.898 1.417-1.358-.541c2.421-1.086 4.114-3.508 4.114-6.32 0-3.823-3.123-6.933-6.961-6.933s-6.961 3.11-6.961 6.933c0 1.386.414 2.674 1.12 3.758l-2.764-.024h-.005c-.009 0-.015.004-.023.005a.5147.5147 0 0 0-.155.031c-.013.005-.026.008-.038.013-.006.003-.013.003-.019.006l-3.233 1.596c-.001 0-.001 0-.001.001l-1.893.911a.3967.3967 0 0 0-.063.035c-.755.502-1.012 1.489-.598 2.295.22.429.595.745 1.056.889.178.055.359.083.539.083.29 0 .577-.071.839-.211l1.388-.738 2.264-1.169 1.357-.008L2.2 22.211c-.001.001-.001.001-.002.001L.859 23.545c-.316.315-.49.732-.49 1.178s.174.863.49 1.179c.325.323.752.485 1.179.485s.854-.162 1.18-.485l1.314-1.309 1.741-1.3.901.897-1.762 1.754c0 .001-.001.001-.002.001l-1.339 1.333c-.316.315-.49.732-.49 1.178s.174.863.49 1.179c.325.323.753.485 1.18.485s.855-.162 1.18-.485l3.482-3.467c.001-.001.001-.001.001-.002l1.01-1-.004-.004c.006-.006.015-.009.022-.015l5.166-5.658 3.471.494c.025.004.05.005.075.005.065 0 .127-.015.187-.038.018-.006.033-.015.05-.023.019-.01.039-.015.058-.027l3.213-2.133c.012-.008.018-.021.029-.029.013-.01.029-.014.041-.026l1.271-1.191c.662-.62.753-1.635.212-2.362zM2.13 17.77a.714.714 0 0 1-.558.052.7167.7167 0 0 1-.427-.358.714.714 0 0 1 .214-.902l1.314-.632.449 1.313-.992.527zm3.498-1.828-1.548.8-.439-1.283 2.027-1.001-.04 1.484zm15.099-6.62c0 .918-.219 1.785-.599 2.559l-4.181-1.899c-.044-.573-.341-1.075-.788-1.388l1.464-4.86c2.378.756 4.105 2.974 4.105 5.588zm-11.789 0c0-3.235 2.644-5.867 5.894-5.867.253 0 .5.021.745.052l-1.432 4.754c-.019-.001-.037-.006-.057-.006-1.033 0-1.873.837-1.873 1.867s.84 1.867 1.873 1.867c.694 0 1.294-.383 1.618-.945l3.862 1.755c-1.075 1.446-2.795 2.39-4.737 2.39-3.25 0-5.894-2.632-5.894-5.867zm5.956.8c0 .441-.362.8-.806.8s-.806-.359-.806-.8c0-.441.362-.8.806-.8s.806.359.806.8zM2.465 25.146c-.236.234-.619.234-.854.001-.114-.114-.176-.263-.176-.423s.062-.309.176-.421l.962-.959.851.848-.959.955zm3.214 3.734c-.236.234-.619.235-.855.001-.114-.114-.176-.263-.176-.423s.062-.309.176-.421l.963-.959.852.848-.96.955zm3.481-3.469c-.001 0-.001 0-.002.001l-1.765 1.76-.852-.848 1.763-1.755s.001-.001.002-.001c.04-.04.065-.088.09-.135.007-.014.02-.026.026-.04.017-.041.019-.085.026-.129.003-.025.014-.047.014-.073 0-.036-.013-.07-.02-.106-.006-.032-.006-.065-.019-.095-.02-.05-.055-.094-.091-.138-.01-.012-.014-.027-.025-.038h-.001c-.001 0-.001-.002-.001-.002l-1.607-1.6c-.017-.017-.039-.024-.058-.038a.5067.5067 0 0 0-.087-.058c-.03-.015-.061-.024-.093-.033a.5073.5073 0 0 0-.103-.02.5002.5002 0 0 0-.095.005.5307.5307 0 0 0-.104.02c-.034.011-.063.027-.094.045-.02.011-.042.015-.061.029L4.23 23.486l-.901-.897 2.399-2.386 4.361 4.289-.928.919zm6.819-7.017c-.015-.002-.03.004-.045.003a.5556.5556 0 0 0-.115.007.5364.5364 0 0 0-.088.021.5413.5413 0 0 0-.097.047.4923.4923 0 0 0-.083.061c-.013.011-.028.017-.04.029l-4.698 5.146-4.328-4.257 2.833-2.818c.209-.208.21-.546.002-.755a.5314.5314 0 0 0-.381-.156v-.001l-2.219.013.028-1.607 3.104.027c1.265 1.294 3.029 2.101 4.981 2.101.437 0 .864-.045 1.279-.123.04.032.079.065.13.085l2.41.96.152.758.178.885-3.003-.427zm4.041.178-.313-1.558 1.446-1.08.947 1.257-2.08 1.381zm3.754-2.831-.838.785-.931-1.236.831-.637c.155-.119.351-.168.543-.143.193.027.364.128.48.284.217.292.18.699-.085.947z" />
        <path fill="#212121" style="fill:var(--color5, #212121)" d="m13.602 18.544-2.143-2.133c-.207-.207-.545-.207-.753 0l-2.142 2.133c-.1.101-.157.236-.157.378s.056.278.157.378l2.142 2.133c.104.103.241.155.377.155s.273-.052.376-.155l2.143-2.133c.1-.1.157-.236.157-.378s-.057-.278-.157-.378zm-2.519 1.759-1.387-1.381 1.387-1.381 1.387 1.381-1.387 1.381zM17.164 5.071l-.258 1.036c.071.018 1.738.452 1.738 2.149h1.067c0-2.017-1.666-2.965-2.547-3.185zM19.711 9.322h-1.067v1.067h1.067V9.322z" />
      </symbol>
      <symbol id="icon-facebook" viewBox="0 0 32 32">
        <path d="M19 6h5V0h-5c-3.86 0-7 3.14-7 7v3H8v6h4v16h6V16h5l1-6h-6V7c0-.542.458-1 1-1z" />
      </symbol>
      <symbol id="icon-instagram" viewBox="0 0 32 32">
        <path d="M16 2.881c4.275 0 4.781.019 6.462.094 1.563.069 2.406.331 2.969.55.744.288 1.281.638 1.837 1.194.563.563.906 1.094 1.2 1.838.219.563.481 1.412.55 2.969.075 1.688.094 2.194.094 6.463s-.019 4.781-.094 6.463c-.069 1.563-.331 2.406-.55 2.969-.288.744-.637 1.281-1.194 1.837-.563.563-1.094.906-1.837 1.2-.563.219-1.413.481-2.969.55-1.688.075-2.194.094-6.463.094s-4.781-.019-6.463-.094c-1.563-.069-2.406-.331-2.969-.55-.744-.288-1.281-.637-1.838-1.194-.563-.563-.906-1.094-1.2-1.837-.219-.563-.481-1.413-.55-2.969-.075-1.688-.094-2.194-.094-6.463s.019-4.781.094-6.463c.069-1.563.331-2.406.55-2.969.288-.744.638-1.281 1.194-1.838.563-.563 1.094-.906 1.838-1.2.563-.219 1.412-.481 2.969-.55 1.681-.075 2.188-.094 6.463-.094zM16 0c-4.344 0-4.887.019-6.594.094-1.7.075-2.869.35-3.881.744-1.056.412-1.95.956-2.837 1.85-.894.888-1.438 1.781-1.85 2.831C.444 6.538.169 7.7.094 9.4.019 11.113 0 11.656 0 16s.019 4.887.094 6.594c.075 1.7.35 2.869.744 3.881.413 1.056.956 1.95 1.85 2.837.887.887 1.781 1.438 2.831 1.844 1.019.394 2.181.669 3.881.744 1.706.075 2.25.094 6.594.094s4.888-.019 6.594-.094c1.7-.075 2.869-.35 3.881-.744 1.05-.406 1.944-.956 2.831-1.844s1.438-1.781 1.844-2.831c.394-1.019.669-2.181.744-3.881.075-1.706.094-2.25.094-6.594s-.019-4.887-.094-6.594c-.075-1.7-.35-2.869-.744-3.881-.394-1.063-.938-1.956-1.831-2.844-.887-.887-1.781-1.438-2.831-1.844-1.019-.394-2.181-.669-3.881-.744-1.712-.081-2.256-.1-6.6-.1z" />
        <path d="M16 7.781c-4.537 0-8.219 3.681-8.219 8.219s3.681 8.219 8.219 8.219 8.219-3.681 8.219-8.219c0-4.537-3.681-8.219-8.219-8.219zm0 13.55c-2.944 0-5.331-2.387-5.331-5.331s2.387-5.331 5.331-5.331c2.944 0 5.331 2.387 5.331 5.331S18.944 21.331 16 21.331zM26.462 7.456c0 1.06-.859 1.919-1.919 1.919s-1.919-.859-1.919-1.919.859-1.919 1.919-1.919 1.919.859 1.919 1.919z" />
      </symbol>
      <symbol id="icon-twitter" viewBox="0 0 32 32">
        <path d="M32 7.075c-1.175.525-2.444.875-3.769 1.031 1.356-.813 2.394-2.1 2.887-3.631-1.269.75-2.675 1.3-4.169 1.594C25.749 4.794 24.043 4 22.155 4c-3.625 0-6.563 2.938-6.563 6.563 0 .512.056 1.012.169 1.494-5.456-.275-10.294-2.888-13.531-6.862-.563.969-.887 2.1-.887 3.3 0 2.275 1.156 4.287 2.919 5.463-1.075-.031-2.087-.331-2.975-.819v.081c0 3.181 2.263 5.838 5.269 6.437-.55.15-1.131.231-1.731.231-.425 0-.831-.044-1.237-.119.838 2.606 3.263 4.506 6.131 4.563-2.25 1.762-5.075 2.813-8.156 2.813-.531 0-1.05-.031-1.569-.094 2.913 1.869 6.362 2.95 10.069 2.95 12.075 0 18.681-10.006 18.681-18.681 0-.287-.006-.569-.019-.85 1.281-.919 2.394-2.075 3.275-3.394z" />
      </symbol>
      <symbol id="icon-linkedin2" viewBox="0 0 32 32">
        <path d="M12 12h5.535v2.837h.079c.77-1.381 2.655-2.837 5.464-2.837C28.92 12 30 15.637 30 20.367V30h-5.769v-8.54c0-2.037-.042-4.657-3.001-4.657-3.005 0-3.463 2.218-3.463 4.509V30H12V12zM2 12h6v18H2V12zM8 7c0 1.657-1.343 3-3 3S2 8.657 2 7s1.343-3 3-3 3 1.343 3 3z" />
      </symbol>
    </defs>
  </svg>